<?xml version="1.0" standalone="no"?>
<!DOCTYPE svg PUBLIC "-//W3C//DTD SVG 20010904//EN"
 "http://www.w3.org/TR/2001/REC-SVG-20010904/DTD/svg10.dtd">
<svg version="1.0" xmlns="http://www.w3.org/2000/svg"
 width="514.000000pt" height="648.000000pt" viewBox="0 0 514.000000 648.000000"
 preserveAspectRatio="xMidYMid meet">

<g transform="translate(0.000000,648.000000) scale(0.100000,-0.100000)"
fill="#000000" stroke="none">
<path d="M695 4505 c-62 -62 6 -161 89 -129 9 3 16 10 16 14 0 5 -13 3 -29 -3
-58 -22 -111 46 -77 98 20 30 56 41 85 25 12 -6 21 -7 21 -1 0 5 -7 12 -16 15
-32 12 -66 5 -89 -19z"/>
<path d="M1819 4501 c-16 -16 -29 -39 -29 -51 0 -29 53 -80 82 -80 13 0 33 7
44 15 22 17 12 20 -18 4 -14 -8 -28 -7 -49 1 -52 22 -52 98 0 120 21 8 35 9
49 1 30 -16 40 -13 18 4 -30 23 -65 18 -97 -14z"/>
<path d="M1970 4450 l0 -80 58 2 57 2 -52 3 c-53 4 -53 4 -53 38 0 33 2 34 43
38 l42 4 -42 1 c-40 2 -43 4 -43 31 0 28 2 30 48 34 l47 3 -52 2 -53 2 0 -80z"/>
<path d="M3059 4509 c-16 -31 4 -71 34 -67 16 2 23 11 25 31 6 51 -37 77 -59
36z m46 -25 c0 -19 -6 -30 -17 -32 -21 -4 -34 34 -17 54 18 22 34 11 34 -22z"/>
<path d="M3148 4478 c-64 -98 -70 -108 -64 -108 8 0 108 151 103 156 -2 2 -20
-19 -39 -48z"/>
<path d="M3160 4435 c-26 -31 13 -82 44 -56 19 16 21 42 4 59 -16 16 -33 15
-48 -3z m48 -21 c3 -22 -21 -39 -39 -28 -11 6 -12 38 -2 48 13 13 38 1 41 -20z"/>
<path d="M4313 4443 c15 -2 37 -2 50 0 12 2 0 4 -28 4 -27 0 -38 -2 -22 -4z"/>
<path d="M681 3608 c1 -17 2 -19 6 -5 3 12 15 17 44 17 21 0 39 -4 39 -9 0 -5
-13 -39 -30 -75 -16 -36 -26 -66 -21 -66 7 0 71 137 71 153 0 4 -25 7 -55 7
-51 0 -55 -2 -54 -22z"/>
<path d="M1898 3619 c-20 -11 -24 -39 -7 -56 8 -8 8 -13 0 -17 -21 -14 -12
-56 14 -68 53 -24 109 26 75 67 -7 9 -8 15 0 20 17 10 11 44 -9 55 -25 13 -51
12 -73 -1z m60 -8 c25 -15 10 -46 -23 -46 -21 0 -31 5 -33 19 -4 18 13 36 33
36 6 0 16 -4 23 -9z m10 -73 c31 -31 -11 -69 -54 -49 -39 17 -24 61 21 61 12
0 26 -5 33 -12z"/>
<path d="M3098 3619 c-21 -12 -24 -49 -6 -67 15 -15 64 -16 73 -2 4 7 -2 9
-19 4 -51 -12 -77 37 -31 58 33 15 51 -2 60 -54 6 -29 3 -40 -15 -58 -15 -15
-30 -20 -46 -17 -13 2 -24 0 -24 -4 0 -5 14 -9 30 -9 43 0 70 31 70 80 0 63
-45 97 -92 69z"/>
<path d="M4310 3565 c10 -12 10 -19 2 -27 -20 -20 -13 -32 7 -14 16 15 19 15
31 1 7 -9 15 -13 18 -10 3 2 -1 11 -8 20 -10 12 -10 18 0 30 14 17 0 21 -17 4
-8 -8 -13 -8 -17 0 -4 6 -12 11 -18 11 -6 0 -6 -6 2 -15z"/>
<path d="M712 2673 l-43 -58 45 -3 c37 -3 45 -7 49 -25 l4 -22 2 22 c0 12 9
24 19 26 15 4 15 5 0 6 -9 0 -19 11 -21 24 l-4 22 -2 -22 c-1 -19 -7 -23 -37
-23 -28 0 -34 3 -27 13 5 6 24 31 42 55 18 23 29 42 24 42 -5 0 -28 -26 -51
-57z"/>
<path d="M1896 2699 c-9 -47 -8 -49 20 -49 56 0 84 -38 43 -60 -15 -8 -29 -8
-52 -1 -29 10 -30 9 -13 -4 38 -29 96 -11 96 30 0 26 -25 45 -59 45 -17 0 -21
6 -21 29 0 27 4 30 38 34 l37 4 -41 1 c-39 2 -42 0 -48 -29z"/>
<path d="M3105 2705 c-14 -13 -25 -35 -25 -49 0 -81 81 -119 112 -51 9 21 8
28 -7 45 -20 22 -55 26 -73 8 -9 -9 -12 -7 -12 10 0 25 43 57 65 48 8 -3 15
-1 15 4 0 20 -51 9 -75 -15z m59 -51 c20 -8 21 -48 1 -64 -12 -10 -21 -10 -40
-2 -29 13 -33 46 -7 61 20 12 25 13 46 5z"/>
<path d="M4323 2633 c9 -2 23 -2 30 0 6 3 -1 5 -18 5 -16 0 -22 -2 -12 -5z"/>
<path d="M713 1823 c14 -4 17 -16 17 -79 0 -43 4 -74 10 -74 6 0 10 33 10 80
l0 80 -27 -1 c-17 -1 -21 -3 -10 -6z"/>
<path d="M1894 1815 c-23 -17 -14 -19 20 -4 20 9 29 9 41 -1 24 -20 18 -38
-31 -90 l-47 -50 59 2 c51 1 53 2 16 5 l-43 4 35 40 c37 40 45 76 24 97 -16
16 -50 15 -74 -3z"/>
<path d="M3118 1823 c47 -5 51 -12 22 -38 -26 -24 -25 -32 5 -39 18 -5 25 -13
25 -31 0 -29 -37 -43 -69 -25 -12 6 -21 7 -21 1 0 -26 71 -28 95 -1 15 17 16
24 7 45 -6 14 -19 25 -27 25 -14 0 -13 5 4 29 12 16 21 32 21 35 0 3 -24 5
-52 4 -51 -1 -51 -2 -10 -5z"/>
<path d="M4331 1778 c-1 -19 -7 -28 -23 -31 l-23 -4 23 -2 c15 -1 22 -8 23
-23 l2 -23 4 22 c2 13 13 24 26 26 l22 4 -22 2 c-16 1 -23 9 -26 29 l-4 27 -2
-27z"/>
<path d="M3895 1137 c-3 -7 -4 -140 -3 -297 l3 -285 445 0 445 0 0 295 0 295
-443 3 c-351 2 -444 0 -447 -11z m885 -287 l0 -290 -440 0 -440 0 0 290 0 290
440 0 440 0 0 -290z"/>
<path d="M1894 909 c-40 -44 -12 -139 41 -139 33 0 60 36 60 80 0 44 -27 80
-60 80 -12 0 -30 -9 -41 -21z m68 -6 c33 -30 14 -123 -25 -123 -42 0 -63 86
-30 122 20 22 31 23 55 1z"/>
</g>
</svg>
